<svg width="13" height="14" viewBox="0 0 13 14" fill="none" xmlns="http://www.w3.org/2000/svg">
<path d="M12.4583 6.30241H7.58333V1.42741C7.58333 1.12814 7.34094 0.885742 7.04167 0.885742H5.95833C5.65906 0.885742 5.41667 1.12814 5.41667 1.42741V6.30241H0.541667C0.242396 6.30241 0 6.54481 0 6.84408V7.92741C0 8.22668 0.242396 8.46908 0.541667 8.46908H5.41667V13.3441C5.41667 13.6433 5.65906 13.8857 5.95833 13.8857H7.04167C7.34094 13.8857 7.58333 13.6433 7.58333 13.3441V8.46908H12.4583C12.7576 8.46908 13 8.22668 13 7.92741V6.84408C13 6.54481 12.7576 6.30241 12.4583 6.30241Z" fill="white"/>
</svg>
